   <svg
          width="15"
          height="12"
          viewBox="0 0 15 12"
          fill="none"
          xmlns="http://www.w3.org/2000/svg"
        >
          <path
            d="M3.75 11.25C3.66789 11.2502 3.58654 11.2342 3.51067 11.2028C3.4348 11.1714 3.36592 11.1252 3.308 11.067L0.183003 7.942C0.124792 7.88408 0.0786448 7.81519 0.047233 7.73932C0.0158212 7.66346 -0.000231999 7.58211 2.53318e-06 7.5C0.0100556 7.27532 0.0847065 7.05831 0.215003 6.875H14.375C14.5408 6.875 14.6997 6.94084 14.8169 7.05805C14.9342 7.17526 15 7.33423 15 7.5C15 7.66576 14.9342 7.82473 14.8169 7.94194C14.6997 8.05915 14.5408 8.125 14.375 8.125H2.134L4.192 10.183C4.27943 10.2704 4.33898 10.3818 4.3631 10.503C4.38723 10.6243 4.37485 10.75 4.32754 10.8642C4.28022 10.9784 4.2001 11.076 4.09729 11.1447C3.99449 11.2134 3.87363 11.25 3.75 11.25ZM14.817 4.375H0.625003C0.459242 4.375 0.300271 4.30915 0.183061 4.19194C0.0658506 4.07473 2.53318e-06 3.91576 2.53318e-06 3.75C2.53318e-06 3.58424 0.0658506 3.42526 0.183061 3.30805C0.300271 3.19084 0.459242 3.125 0.625003 3.125H12.866L10.808 1.066C10.7497 1.00818 10.7034 0.939313 10.672 0.863421C10.6406 0.787529 10.6246 0.706134 10.625 0.623995C10.6252 0.50045 10.662 0.379728 10.7307 0.277079C10.7995 0.17443 10.8971 0.0944593 11.0113 0.0472688C11.1254 7.83354e-05 11.2511 -0.0122147 11.3722 0.0119427C11.4934 0.0361001 11.6047 0.0956241 11.692 0.182995L14.817 3.309C14.8752 3.36669 14.9214 3.4354 14.9528 3.51111C14.9842 3.58682 15.0003 3.66803 15 3.75C15.0009 3.97135 14.9373 4.18817 14.817 4.374V4.375Z"
            fill="url(#paint0_linear)"
          />
          <defs>
            <linearGradient
              id="paint0_linear"
              x1="7.50001"
              y1="-0.00012207"
              x2="7.50001"
              y2="11.25"
              gradientUnits="userSpaceOnUse"
            >
              <stop stop-color="#FE6DAD" />
              <stop offset="1" stop-color="#FC9F35" />
            </linearGradient>
          </defs>
        </svg>