<svg width="8" height="7" viewBox="0 0 8 7" fill="none" xmlns="http://www.w3.org/2000/svg">
<path d="M6.57998 5.074C6.82598 5.336 7.02598 5.55 7.17098 5.716L5.57998 6.692L4.18598 4.549C3.76098 5.249 3.27898 5.984 2.72798 6.774L1.16198 5.644C1.66198 5.122 2.17898 4.63 2.72698 4.144C2.94298 3.958 3.08498 3.829 3.13598 3.78C2.96398 3.749 2.46198 3.645 1.64498 3.453C1.05498 3.316 0.66398 3.222 0.47998 3.153L1.11298 1.453C1.94731 1.76315 2.7547 2.14143 3.52698 2.584C3.38094 1.72995 3.29839 0.866251 3.27998 0L5.11198 0C5.0698 0.871552 4.9753 1.73978 4.82898 2.6C4.97098 2.547 5.26198 2.423 5.71998 2.223C6.34331 1.95633 6.91865 1.73067 7.44598 1.546L7.99998 3.3C7.23498 3.457 6.33198 3.618 5.32398 3.772L6.57998 5.074Z" fill="white"/>
</svg>
