<svg width="40" height="40" viewBox="0 0 40 40" fill="none" xmlns="http://www.w3.org/2000/svg">
<path d="M20 40C31.0457 40 40 31.0457 40 20C40 8.9543 31.0457 0 20 0C8.9543 0 0 8.9543 0 20C0 31.0457 8.9543 40 20 40Z" fill="url(#paint0_linear)"/>
<path d="M21.358 29.465H17.286C17.207 29.4649 17.1288 29.4484 17.0565 29.4165C16.9842 29.3846 16.9193 29.338 16.8659 29.2797C16.8125 29.2214 16.7718 29.1527 16.7463 29.0779C16.7209 29.0031 16.7112 28.9238 16.718 28.845L17.018 25.393H13.571C13.4917 25.3935 13.4131 25.3773 13.3404 25.3457C13.2676 25.314 13.2023 25.2675 13.1485 25.2092C13.0948 25.1508 13.0538 25.0819 13.0282 25.0068C13.0027 24.9317 12.993 24.852 13 24.773L14.249 10.52C14.2622 10.3783 14.3276 10.2465 14.4326 10.1504C14.5376 10.0542 14.6746 10.0006 14.817 10H21.6C22.1132 9.99362 22.622 10.0959 23.0929 10.3C23.5638 10.5042 23.9862 10.8057 24.3323 11.1847C24.6785 11.5637 24.9405 12.0116 25.1012 12.4991C25.262 12.9865 25.3178 13.5025 25.265 14.013L25.26 14.072H25.317C25.8302 14.0656 26.339 14.1679 26.8099 14.372C27.2808 14.5762 27.7032 14.8777 28.0493 15.2567C28.3955 15.6357 28.6575 16.0836 28.8182 16.5711C28.979 17.0585 29.0348 17.5745 28.982 18.085L28.863 19.442C28.7533 20.5019 28.2597 21.485 27.4751 22.206C26.6906 22.927 25.6693 23.336 24.604 23.356H22.415L21.926 28.943C21.9149 29.0857 21.8501 29.2189 21.7447 29.3158C21.6393 29.4126 21.5011 29.4659 21.358 29.465ZM18.7 19.284L18.21 24.872L17.91 28.324H20.835L21.325 22.736C21.3366 22.5937 21.4016 22.461 21.5069 22.3645C21.6123 22.2681 21.7502 22.215 21.893 22.216H24.607C25.3885 22.201 26.1374 21.9006 26.7126 21.3713C27.2877 20.842 27.6493 20.1205 27.729 19.343L27.848 17.985C27.8867 17.6322 27.8498 17.2752 27.7398 16.9378C27.6298 16.6004 27.4492 16.2903 27.2101 16.028C26.9709 15.7658 26.6787 15.5575 26.3528 15.417C26.0269 15.2765 25.6748 15.2069 25.32 15.213H25.163L25.149 15.371C25.0391 16.4305 24.5455 17.4133 23.7612 18.134C22.9769 18.8548 21.956 19.2638 20.891 19.284H18.7ZM15.34 11.14L14.193 24.252H17.12L17.965 14.592C17.9766 14.4497 18.0416 14.317 18.1469 14.2205C18.2523 14.1241 18.3902 14.071 18.533 14.072H24.118L24.132 13.914C24.171 13.5607 24.1343 13.2032 24.0242 12.8652C23.9141 12.5273 23.7332 12.2167 23.4936 11.9542C23.254 11.6917 22.9611 11.4833 22.6346 11.3429C22.3081 11.2025 21.9554 11.1333 21.6 11.14H15.34ZM19.055 15.213L18.8 18.144H20.891C21.6725 18.129 22.4214 17.8286 22.9966 17.2993C23.5717 16.77 23.9333 16.0485 24.013 15.271L24.018 15.212L19.055 15.213Z" fill="white"/>
<defs>
<linearGradient id="paint0_linear" x1="20" y1="0" x2="20" y2="40" gradientUnits="userSpaceOnUse">
<stop stop-color="#8500F9"/>
<stop offset="1" stop-color="#E70EFF"/>
</linearGradient>
</defs>
</svg>
