<svg width="40" height="40" viewBox="0 0 40 40" fill="none" xmlns="http://www.w3.org/2000/svg">
<path d="M20 0C23.9556 0 27.8224 1.17298 31.1114 3.37061C34.4004 5.56824 36.9638 8.69181 38.4776 12.3463C39.9913 16.0009 40.3874 20.0222 39.6157 23.9018C38.844 27.7814 36.9392 31.3451 34.1421 34.1421C31.3451 36.9392 27.7814 38.844 23.9018 39.6157C20.0222 40.3874 16.0009 39.9913 12.3463 38.4776C8.69181 36.9638 5.56824 34.4004 3.37061 31.1114C1.17298 27.8224 0 23.9556 0 20C0 14.6957 2.10714 9.60859 5.85786 5.85786C9.60859 2.10714 14.6957 0 20 0V0Z" fill="url(#paint0_linear)"/>
<path d="M20 27C18.9592 26.9922 17.9362 26.7288 17.021 26.233L17.031 26.214C16.9205 26.1538 16.8283 26.0649 16.764 25.9566C16.6998 25.8484 16.6659 25.7249 16.666 25.599C16.662 25.4178 16.7299 25.2424 16.8549 25.1112C16.9799 24.98 17.1518 24.9037 17.333 24.899C17.4492 24.9009 17.5626 24.9356 17.66 24.999C18.3802 25.3848 19.183 25.591 20 25.6C21.449 25.562 22.8238 24.9513 23.8234 23.9017C24.8229 22.8521 25.3658 21.4491 25.333 20C25.3319 19.3309 25.2149 18.6671 24.987 18.038L24.646 19.469H24.634C24.6031 19.6158 24.5239 19.7479 24.4089 19.8442C24.2939 19.9405 24.1499 19.9954 24 20C23.819 19.995 23.6474 19.9186 23.5226 19.7874C23.3978 19.6563 23.33 19.481 23.334 19.3C23.3359 19.2549 23.3436 19.2101 23.357 19.167L23.366 19.134H23.354L24.021 16.334H24.033C24.0633 16.1867 24.1423 16.0539 24.2573 15.957C24.3724 15.8601 24.5167 15.8048 24.667 15.8H27.334C27.5197 15.8 27.6977 15.8737 27.829 16.005C27.9603 16.1363 28.034 16.3143 28.034 16.5C28.034 16.6857 27.9603 16.8637 27.829 16.995C27.6977 17.1263 27.5197 17.2 27.334 17.2H26.1C26.4732 18.0864 26.6656 19.0383 26.666 20C26.7071 21.8113 26.0286 23.5651 24.7792 24.8772C23.5297 26.1892 21.8112 26.9526 20 27ZM15.334 24.2H12.667C12.4814 24.2 12.3033 24.1263 12.172 23.995C12.0408 23.8637 11.967 23.6857 11.967 23.5C11.967 23.3143 12.0408 23.1363 12.172 23.005C12.3033 22.8737 12.4814 22.8 12.667 22.8H13.9C13.5261 21.9138 13.3333 20.9618 13.333 20C13.2922 18.1886 13.9709 16.4348 15.2205 15.1228C16.4701 13.8107 18.1887 13.0474 20 13C21.0338 13.0098 22.0494 13.2728 22.958 13.766V13.774C23.073 13.8331 23.1693 13.9229 23.2364 14.0333C23.3035 14.1438 23.3386 14.2707 23.338 14.4C23.3423 14.5813 23.2745 14.7568 23.1494 14.8881C23.0243 15.0193 22.8523 15.0955 22.671 15.1C22.5653 15.0973 22.4621 15.0677 22.371 15.014C21.6432 14.6176 20.8288 14.4067 20 14.4C18.5511 14.438 17.1762 15.0487 16.1767 16.0983C15.1771 17.1479 14.6342 18.5509 14.667 20C14.6681 20.6691 14.7851 21.3329 15.013 21.962L15.353 20.53H15.365C15.3961 20.3833 15.4756 20.2512 15.5908 20.1551C15.706 20.059 15.8501 20.0044 16 20C16.1812 20.0047 16.3531 20.081 16.4781 20.2122C16.6031 20.3434 16.671 20.5188 16.667 20.7C16.6654 20.7427 16.6584 20.7851 16.646 20.826C16.646 20.84 16.639 20.853 16.636 20.867H16.648L15.981 23.667H15.969C15.9385 23.8143 15.8592 23.947 15.744 24.0437C15.6288 24.1404 15.4844 24.1955 15.334 24.2Z" fill="white"/>
<defs>
<linearGradient id="paint0_linear" x1="20" y1="0" x2="20" y2="40" gradientUnits="userSpaceOnUse">
<stop stop-color="#00C6FF"/>
<stop offset="1" stop-color="#0072FF"/>
</linearGradient>
</defs>
</svg>
