<svg width="18" height="5" viewBox="0 0 18 5" fill="none" xmlns="http://www.w3.org/2000/svg">
<path d="M4.064 2.033C4.064 2.43489 3.94483 2.82776 3.72155 3.16192C3.49827 3.49608 3.18091 3.75653 2.80961 3.91032C2.43831 4.06412 2.02975 4.10436 1.63558 4.02596C1.24141 3.94755 0.879339 3.75402 0.59516 3.46984C0.31098 3.18566 0.117449 2.82359 0.0390434 2.42943C-0.039362 2.03526 0.000879288 1.62669 0.154676 1.25539C0.308474 0.884089 0.568922 0.566734 0.903082 0.343455C1.23724 0.120176 1.63011 0.00100136 2.032 0.00100136C2.57092 0.00100136 3.08777 0.215086 3.46884 0.59616C3.84991 0.977234 4.064 1.49408 4.064 2.033ZM11.032 2.033C11.032 2.43489 10.9128 2.82776 10.6895 3.16192C10.4663 3.49608 10.1489 3.75653 9.77761 3.91032C9.40631 4.06412 8.99775 4.10436 8.60358 4.02596C8.20941 3.94755 7.84734 3.75402 7.56316 3.46984C7.27898 3.18566 7.08545 2.82359 7.00704 2.42943C6.92864 2.03526 6.96888 1.62669 7.12268 1.25539C7.27647 0.884089 7.53692 0.566734 7.87108 0.343455C8.20524 0.120176 8.59811 0.00100136 9 0.00100136C9.53892 0.00100136 10.0558 0.215086 10.4368 0.59616C10.8179 0.977234 11.032 1.49408 11.032 2.033ZM18 2.033C18 2.43489 17.8808 2.82776 17.6575 3.16192C17.4343 3.49608 17.1169 3.75653 16.7456 3.91032C16.3743 4.06412 15.9657 4.10436 15.5716 4.02596C15.1774 3.94755 14.8153 3.75402 14.5312 3.46984C14.247 3.18566 14.0534 2.82359 13.975 2.42943C13.8966 2.03526 13.9369 1.62669 14.0907 1.25539C14.2445 0.884089 14.5049 0.566734 14.8391 0.343455C15.1732 0.120176 15.5661 0.00100136 15.968 0.00100136C16.5069 0.00100136 17.0238 0.215086 17.4048 0.59616C17.7859 0.977234 18 1.49408 18 2.033V2.033Z" fill="#43424B"/>
</svg>
