<svg width="63" height="20" viewBox="0 0 63 20" fill="none" xmlns="http://www.w3.org/2000/svg">
<path d="M25.139 0.905945L21.948 19.6299H27.048L30.248 0.905945H25.139Z" fill="white"/>
<path d="M17.669 0.922974L12.669 13.692L12.136 11.764C10.5115 8.59598 8.07212 5.9181 5.06897 4.00597L9.63897 19.623L15.039 19.614L23.075 0.922974H17.669Z" fill="white"/>
<path d="M10.2 1.76697C10.075 1.28807 9.78128 0.870431 9.37281 0.590948C8.96433 0.311466 8.46864 0.188955 7.977 0.245973H0.066L0 0.618973C6.157 2.11297 10.231 5.71197 11.921 10.039L10.2 1.76697Z" fill="white"/>
<path d="M40.586 4.49496C41.895 4.46598 43.1957 4.71017 44.405 5.21196L44.866 5.42896L45.556 1.37096C44.0909 0.840312 42.5432 0.573848 40.985 0.583956C35.944 0.583956 32.389 3.12396 32.361 6.76296C32.328 9.45196 34.893 10.954 36.83 11.85C38.818 12.769 39.485 13.35 39.476 14.173C39.46 15.426 37.89 16.001 36.424 16.001C34.7681 16.0502 33.1234 15.7148 31.619 15.021L30.961 14.721L30.244 18.913C32.064 19.5849 33.99 19.9236 35.93 19.913C41.294 19.913 44.78 17.403 44.817 13.513C44.839 11.385 43.478 9.76196 40.529 8.42996C38.744 7.55996 37.652 6.98396 37.662 6.10596C37.662 5.32696 38.589 4.49496 40.586 4.49496Z" fill="white"/>
<path d="M49.818 19.6409H44.46L52.037 2.48094C52.2484 1.96286 52.6254 1.52938 53.1092 1.24824C53.593 0.967087 54.1562 0.854106 54.711 0.926943H58.653L62.782 19.6389H58.048C58.04 19.6009 57.571 17.4559 57.426 16.8339H53.843H50.891C50.704 17.3109 49.909 19.4059 49.819 19.6429L49.818 19.6409ZM54.393 7.76194L54.388 7.77594C54.222 8.20494 52.752 11.9919 52.36 12.9949H56.599C56.399 12.0709 55.426 7.63294 55.416 7.58894L55.072 5.97494C54.946 6.31294 54.772 6.75194 54.64 7.10694V7.11894C54.466 7.57194 54.395 7.75694 54.396 7.76394L54.393 7.76194Z" fill="white"/>
</svg>
