<svg width="628" height="380" viewBox="0 0 628 380" fill="none" xmlns="http://www.w3.org/2000/svg">
<g opacity="0.119">
<path d="M236.283 378.135C236.283 378.135 264.81 364.318 285.66 340.997C306.51 317.676 348.46 319.884 369.905 322.59C391.35 325.296 431.325 324.921 453.571 293.055C475.817 261.189 482.711 231.099 522.396 234.785C562.081 238.471 595.16 251.773 627.326 244.35" stroke="white" stroke-width="1.5" stroke-miterlimit="10"/>
<path d="M231.481 373.33C231.481 373.33 260.008 359.513 280.858 336.192C301.708 312.871 343.658 315.079 365.103 317.785C386.548 320.491 426.523 320.116 448.769 288.25C471.015 256.384 477.909 226.294 517.594 229.98C557.279 233.666 590.358 246.968 622.524 239.545" stroke="white" stroke-width="1.5" stroke-miterlimit="10"/>
<path d="M226.679 368.524C226.679 368.524 255.206 354.707 276.056 331.386C296.906 308.065 338.856 310.273 360.301 312.979C381.746 315.685 421.721 315.31 443.967 283.444C466.213 251.578 473.107 221.488 512.792 225.174C552.477 228.86 585.556 242.162 617.722 234.739" stroke="white" stroke-width="1.5" stroke-miterlimit="10"/>
<path d="M221.878 363.718C221.878 363.718 250.405 349.901 271.255 326.58C292.105 303.259 334.055 305.467 355.5 308.173C376.945 310.879 416.92 310.504 439.166 278.638C461.412 246.772 468.306 216.682 507.991 220.368C547.676 224.054 580.755 237.356 612.921 229.933" stroke="white" stroke-width="1.5" stroke-miterlimit="10"/>
<path d="M217.076 358.913C217.076 358.913 245.603 345.096 266.453 321.775C287.303 298.454 329.253 300.662 350.698 303.368C372.143 306.074 412.118 305.699 434.364 273.833C456.61 241.967 463.504 211.877 503.189 215.563C542.874 219.249 575.953 232.551 608.119 225.128" stroke="white" stroke-width="1.5" stroke-miterlimit="10"/>
<path d="M212.274 354.107C212.274 354.107 240.801 340.29 261.651 316.969C282.501 293.648 324.451 295.856 345.896 298.562C367.341 301.268 407.316 300.893 429.562 269.027C451.808 237.161 458.702 207.071 498.387 210.757C538.072 214.443 571.151 227.745 603.317 220.322" stroke="white" stroke-width="1.5" stroke-miterlimit="10"/>
<path d="M207.473 349.301C207.473 349.301 236 335.484 256.85 312.163C277.7 288.842 319.65 291.05 341.095 293.756C362.54 296.462 402.515 296.087 424.761 264.221C447.007 232.355 453.901 202.265 493.586 205.951C533.271 209.637 566.35 222.939 598.516 215.516" stroke="white" stroke-width="1.5" stroke-miterlimit="10"/>
<path d="M202.671 344.495C202.671 344.495 231.198 330.678 252.048 307.357C272.898 284.036 314.848 286.244 336.293 288.95C357.738 291.656 397.713 291.281 419.959 259.415C442.205 227.549 449.099 197.459 488.784 201.145C528.469 204.831 561.548 218.133 593.714 210.71" stroke="white" stroke-width="1.5" stroke-miterlimit="10"/>
<path d="M197.869 339.69C197.869 339.69 226.396 325.873 247.246 302.552C268.096 279.231 310.046 281.439 331.491 284.145C352.936 286.851 392.911 286.476 415.157 254.61C437.403 222.744 444.297 192.654 483.982 196.34C523.667 200.026 556.746 213.328 588.912 205.905" stroke="white" stroke-width="1.5" stroke-miterlimit="10"/>
<path d="M193.068 334.884C193.068 334.884 221.595 321.067 242.445 297.746C263.295 274.425 305.245 276.633 326.69 279.339C348.135 282.045 388.11 281.67 410.356 249.804C432.602 217.938 439.496 187.848 479.181 191.534C518.866 195.22 551.945 208.522 584.111 201.099" stroke="white" stroke-width="1.5" stroke-miterlimit="10"/>
<path d="M188.266 330.078C188.266 330.078 216.793 316.261 237.643 292.94C258.493 269.619 300.443 271.827 321.888 274.533C343.333 277.239 383.308 276.864 405.554 244.998C427.8 213.132 434.694 183.042 474.379 186.728C514.064 190.414 547.143 203.716 579.309 196.293" stroke="white" stroke-width="1.5" stroke-miterlimit="10"/>
<path d="M183.464 325.273C183.464 325.273 211.991 311.456 232.841 288.135C253.691 264.814 295.641 267.022 317.086 269.728C338.531 272.434 378.506 272.059 400.752 240.193C422.998 208.327 429.892 178.237 469.577 181.923C509.262 185.609 542.341 198.911 574.507 191.488" stroke="white" stroke-width="1.5" stroke-miterlimit="10"/>
<path d="M178.662 320.467C178.662 320.467 207.189 306.65 228.039 283.329C248.889 260.008 290.839 262.216 312.284 264.922C333.729 267.628 373.704 267.253 395.95 235.387C418.196 203.521 425.09 173.431 464.775 177.117C504.46 180.803 537.539 194.105 569.705 186.682" stroke="white" stroke-width="1.5" stroke-miterlimit="10"/>
<path d="M173.861 315.661C173.861 315.661 202.388 301.844 223.238 278.523C244.088 255.202 286.038 257.41 307.483 260.116C328.928 262.822 368.903 262.447 391.149 230.581C413.395 198.715 420.289 168.625 459.974 172.311C499.659 175.997 532.738 189.299 564.904 181.876" stroke="white" stroke-width="1.5" stroke-miterlimit="10"/>
<path d="M169.059 310.856C169.059 310.856 197.586 297.039 218.436 273.718C239.286 250.397 281.236 252.605 302.681 255.311C324.126 258.017 364.101 257.642 386.347 225.776C408.593 193.91 415.487 163.82 455.172 167.506C494.857 171.192 527.936 184.494 560.102 177.071" stroke="white" stroke-width="1.5" stroke-miterlimit="10"/>
<path d="M164.257 306.05C164.257 306.05 192.784 292.233 213.634 268.912C234.484 245.591 276.434 247.799 297.879 250.505C319.324 253.211 359.299 252.836 381.545 220.97C403.791 189.104 410.685 159.014 450.37 162.7C490.055 166.386 523.134 179.688 555.3 172.265" stroke="white" stroke-width="1.5" stroke-miterlimit="10"/>
<path d="M159.456 301.244C159.456 301.244 187.983 287.427 208.833 264.106C229.683 240.785 271.633 242.993 293.078 245.699C314.523 248.405 354.498 248.03 376.744 216.164C398.99 184.298 405.884 154.208 445.569 157.894C485.254 161.58 518.333 174.882 550.499 167.459" stroke="white" stroke-width="1.5" stroke-miterlimit="10"/>
<path d="M154.654 296.439C154.654 296.439 183.181 282.622 204.031 259.301C224.881 235.98 266.831 238.188 288.276 240.894C309.721 243.6 349.696 243.225 371.942 211.359C394.188 179.493 401.082 149.403 440.767 153.089C480.452 156.775 513.531 170.077 545.697 162.654" stroke="white" stroke-width="1.5" stroke-miterlimit="10"/>
<path d="M149.852 291.633C149.852 291.633 178.379 277.816 199.229 254.495C220.079 231.174 262.029 233.382 283.474 236.088C304.919 238.794 344.894 238.419 367.14 206.553C389.386 174.687 396.28 144.597 435.965 148.283C475.65 151.969 508.729 165.271 540.895 157.848" stroke="white" stroke-width="1.5" stroke-miterlimit="10"/>
<path d="M145.051 286.827C145.051 286.827 173.578 273.01 194.428 249.689C215.278 226.368 257.228 228.576 278.673 231.282C300.118 233.988 340.093 233.613 362.339 201.747C384.585 169.881 391.479 139.791 431.164 143.477C470.849 147.163 503.928 160.465 536.094 153.042" stroke="white" stroke-width="1.5" stroke-miterlimit="10"/>
<path d="M140.249 282.022C140.249 282.022 168.776 268.205 189.626 244.884C210.476 221.563 252.426 223.771 273.871 226.477C295.316 229.183 335.291 228.808 357.537 196.942C379.783 165.076 386.677 134.986 426.362 138.672C466.047 142.358 499.126 155.66 531.292 148.237" stroke="white" stroke-width="1.5" stroke-miterlimit="10"/>
<path d="M135.447 277.216C135.447 277.216 163.974 263.399 184.824 240.078C205.674 216.757 247.624 218.965 269.069 221.671C290.514 224.377 330.489 224.002 352.735 192.136C374.981 160.27 381.875 130.18 421.56 133.866C461.245 137.552 494.324 150.854 526.49 143.431" stroke="white" stroke-width="1.5" stroke-miterlimit="10"/>
<path d="M130.645 272.41C130.645 272.41 159.172 258.593 180.022 235.272C200.872 211.951 242.822 214.159 264.267 216.865C285.712 219.571 325.687 219.196 347.933 187.33C370.179 155.464 377.073 125.374 416.758 129.06C456.443 132.746 489.522 146.048 521.688 138.625" stroke="white" stroke-width="1.5" stroke-miterlimit="10"/>
<path d="M125.844 267.605C125.844 267.605 154.371 253.788 175.221 230.467C196.071 207.146 238.021 209.354 259.466 212.06C280.911 214.766 320.886 214.391 343.132 182.525C365.378 150.659 372.272 120.569 411.957 124.255C451.642 127.941 484.721 141.243 516.887 133.82" stroke="white" stroke-width="1.5" stroke-miterlimit="10"/>
<path d="M121.042 262.799C121.042 262.799 149.569 248.982 170.419 225.661C191.269 202.34 233.219 204.548 254.664 207.254C276.109 209.96 316.084 209.585 338.33 177.719C360.576 145.853 367.47 115.763 407.155 119.449C446.84 123.135 479.919 136.437 512.085 129.014" stroke="white" stroke-width="1.5" stroke-miterlimit="10"/>
<path d="M111.439 253.188C111.439 253.188 139.966 239.371 160.816 216.05C181.666 192.729 223.616 194.937 245.061 197.643C266.506 200.349 306.481 199.974 328.727 168.108C350.973 136.242 357.867 106.152 397.552 109.838C437.237 113.524 470.316 126.826 502.482 119.403" stroke="white" stroke-width="1.5" stroke-miterlimit="10"/>
<path d="M116.24 257.993C116.24 257.993 144.767 244.176 165.617 220.855C186.467 197.534 228.417 199.742 249.862 202.448C271.307 205.154 311.282 204.779 333.528 172.913C355.774 141.047 362.668 110.957 402.353 114.643C442.038 118.329 475.117 131.631 507.283 124.208" stroke="white" stroke-width="1.5" stroke-miterlimit="10"/>
<path d="M106.637 248.382C106.637 248.382 135.164 234.565 156.014 211.244C176.864 187.923 218.814 190.131 240.259 192.837C261.704 195.543 301.679 195.168 323.925 163.302C346.171 131.436 353.065 101.346 392.75 105.032C432.435 108.718 465.514 122.02 497.68 114.597" stroke="white" stroke-width="1.5" stroke-miterlimit="10"/>
<path d="M101.835 243.576C101.835 243.576 130.362 229.759 151.212 206.438C172.062 183.117 214.012 185.325 235.457 188.031C256.902 190.737 296.877 190.362 319.123 158.496C341.369 126.63 348.263 96.5401 387.948 100.226C427.633 103.912 460.712 117.214 492.878 109.791" stroke="white" stroke-width="1.5" stroke-miterlimit="10"/>
<path d="M97.034 238.771C97.034 238.771 125.561 224.954 146.411 201.633C167.261 178.312 209.211 180.52 230.656 183.226C252.101 185.932 292.076 185.557 314.322 153.691C336.568 121.825 343.462 91.7351 383.147 95.4211C422.832 99.1071 455.911 112.409 488.077 104.986" stroke="white" stroke-width="1.5" stroke-miterlimit="10"/>
<path d="M92.232 233.965C92.232 233.965 120.759 220.148 141.609 196.827C162.459 173.506 204.409 175.714 225.854 178.42C247.299 181.126 287.274 180.751 309.52 148.885C331.766 117.019 338.66 86.9291 378.345 90.6151C418.03 94.3011 451.109 107.603 483.275 100.18" stroke="white" stroke-width="1.5" stroke-miterlimit="10"/>
<path d="M87.43 229.159C87.43 229.159 115.957 215.342 136.807 192.021C157.657 168.7 199.607 170.908 221.052 173.614C242.497 176.32 282.472 175.945 304.718 144.079C326.964 112.213 333.858 82.1231 373.543 85.8091C413.228 89.4951 446.307 102.797 478.473 95.3741" stroke="white" stroke-width="1.5" stroke-miterlimit="10"/>
<path d="M82.628 224.353C82.628 224.353 111.155 210.536 132.005 187.215C152.855 163.894 194.805 166.102 216.25 168.808C237.695 171.514 277.67 171.139 299.916 139.273C322.162 107.407 329.056 77.3171 368.741 81.0031C408.426 84.6891 441.505 97.9911 473.671 90.5681" stroke="white" stroke-width="1.5" stroke-miterlimit="10"/>
<path d="M77.827 219.548C77.827 219.548 106.354 205.731 127.204 182.41C148.054 159.089 190.004 161.297 211.449 164.003C232.894 166.709 272.869 166.334 295.115 134.468C317.361 102.602 324.255 72.5122 363.94 76.1982C403.625 79.8842 436.704 93.1862 468.87 85.7632" stroke="white" stroke-width="1.5" stroke-miterlimit="10"/>
<path d="M73.025 214.742C73.025 214.742 101.552 200.925 122.402 177.604C143.252 154.283 185.202 156.491 206.647 159.197C228.092 161.903 268.067 161.528 290.313 129.662C312.559 97.7961 319.453 67.7061 359.138 71.3921C398.823 75.0781 431.902 88.3801 464.068 80.9571" stroke="white" stroke-width="1.5" stroke-miterlimit="10"/>
<path d="M68.223 209.936C68.223 209.936 96.75 196.119 117.6 172.798C138.45 149.477 180.4 151.685 201.845 154.391C223.29 157.097 263.265 156.722 285.511 124.856C307.757 92.9902 314.651 62.9002 354.336 66.5862C394.021 70.2722 427.1 83.5742 459.266 76.1512" stroke="white" stroke-width="1.5" stroke-miterlimit="10"/>
<path d="M63.422 205.131C63.422 205.131 91.949 191.314 112.799 167.993C133.649 144.672 175.599 146.88 197.044 149.586C218.489 152.292 258.464 151.917 280.71 120.051C302.956 88.1851 309.85 58.0951 349.535 61.7811C389.22 65.4671 422.299 78.7691 454.465 71.3461" stroke="white" stroke-width="1.5" stroke-miterlimit="10"/>
<path d="M58.62 200.325C58.62 200.325 87.147 186.508 107.997 163.187C128.847 139.866 170.797 142.074 192.242 144.78C213.687 147.486 253.662 147.111 275.908 115.245C298.154 83.3791 305.048 53.2891 344.733 56.9751C384.418 60.6611 417.497 73.9631 449.663 66.5401" stroke="white" stroke-width="1.5" stroke-miterlimit="10"/>
<path d="M53.818 195.519C53.818 195.519 82.345 181.702 103.195 158.381C124.045 135.06 165.995 137.268 187.44 139.974C208.885 142.68 248.86 142.305 271.106 110.439C293.352 78.5732 300.246 48.4832 339.931 52.1692C379.616 55.8552 412.695 69.1572 444.861 61.7342" stroke="white" stroke-width="1.5" stroke-miterlimit="10"/>
<path d="M49.017 190.714C49.017 190.714 77.544 176.897 98.394 153.576C119.244 130.255 161.194 132.463 182.639 135.169C204.084 137.875 244.059 137.5 266.305 105.634C288.551 73.7681 295.445 43.6781 335.13 47.3641C374.815 51.0501 407.894 64.3521 440.06 56.9291" stroke="white" stroke-width="1.5" stroke-miterlimit="10"/>
<path d="M44.215 185.908C44.215 185.908 72.742 172.091 93.592 148.77C114.442 125.449 156.392 127.657 177.837 130.363C199.282 133.069 239.257 132.694 261.503 100.828C283.749 68.9621 290.643 38.8721 330.328 42.5581C370.013 46.2441 403.092 59.5461 435.258 52.1231" stroke="white" stroke-width="1.5" stroke-miterlimit="10"/>
<path d="M39.413 181.102C39.413 181.102 67.94 167.285 88.79 143.964C109.64 120.643 151.59 122.851 173.035 125.557C194.48 128.263 234.455 127.888 256.701 96.0221C278.947 64.1561 285.841 34.0661 325.526 37.7521C365.211 41.4381 398.29 54.7401 430.456 47.3171" stroke="white" stroke-width="1.5" stroke-miterlimit="10"/>
<path d="M34.611 176.297C34.611 176.297 63.138 162.48 83.988 139.159C104.838 115.838 146.788 118.046 168.233 120.752C189.678 123.458 229.653 123.083 251.899 91.2171C274.145 59.3511 281.039 29.2611 320.724 32.9471C360.409 36.6331 393.488 49.9351 425.654 42.5121" stroke="white" stroke-width="1.5" stroke-miterlimit="10"/>
<path d="M29.81 171.491C29.81 171.491 58.337 157.674 79.187 134.353C100.037 111.032 141.987 113.24 163.432 115.946C184.877 118.652 224.852 118.277 247.098 86.4111C269.344 54.5451 276.238 24.4551 315.923 28.1411C355.608 31.8271 388.687 45.1291 420.853 37.7061" stroke="white" stroke-width="1.5" stroke-miterlimit="10"/>
<path d="M25.008 166.685C25.008 166.685 53.535 152.868 74.385 129.547C95.235 106.226 137.185 108.434 158.63 111.14C180.075 113.846 220.05 113.471 242.296 81.6051C264.542 49.7391 271.436 19.6491 311.121 23.3351C350.806 27.0211 383.885 40.3231 416.051 32.9001" stroke="white" stroke-width="1.5" stroke-miterlimit="10"/>
<path d="M20.206 161.88C20.206 161.88 48.733 148.063 69.583 124.742C90.433 101.421 132.383 103.629 153.828 106.335C175.273 109.041 215.248 108.666 237.494 76.8001C259.74 44.9341 266.634 14.8441 306.319 18.5301C346.004 22.2161 379.083 35.5181 411.249 28.0951" stroke="white" stroke-width="1.5" stroke-miterlimit="10"/>
<path d="M15.405 157.074C15.405 157.074 43.932 143.257 64.782 119.936C85.632 96.6152 127.582 98.8232 149.027 101.529C170.472 104.235 210.447 103.86 232.693 71.9942C254.939 40.1282 261.833 10.0382 301.518 13.7242C341.203 17.4102 374.282 30.7122 406.448 23.2892" stroke="white" stroke-width="1.5" stroke-miterlimit="10"/>
<path d="M10.603 152.268C10.603 152.268 39.13 138.451 59.98 115.13C80.83 91.8091 122.78 94.0171 144.225 96.7231C165.67 99.4291 205.645 99.0541 227.891 67.1881C250.137 35.3221 257.031 5.23213 296.716 8.91813C336.401 12.6041 369.48 25.9061 401.646 18.4831" stroke="white" stroke-width="1.5" stroke-miterlimit="10"/>
<path d="M5.80103 147.463C5.80103 147.463 34.328 133.646 55.178 110.325C76.028 87.0041 117.978 89.2121 139.423 91.9181C160.868 94.6241 200.843 94.2491 223.089 62.3831C245.335 30.5171 252.229 0.427134 291.914 4.11313C331.599 7.79913 364.678 21.1011 396.844 13.6781" stroke="white" stroke-width="1.5" stroke-miterlimit="10"/>
<path d="M1 145.657C1 145.657 29.527 131.84 50.377 108.519C71.227 85.1981 113.177 87.4061 134.622 90.1121C156.067 92.8181 196.042 92.4431 218.288 60.5771C240.534 28.7111 247.428 -1.3789 287.113 2.3071C326.798 5.9931 359.877 19.2951 392.043 11.8721" stroke="white" stroke-width="1.5" stroke-miterlimit="10"/>
</g>
</svg>
